<svg width="107" height="109" viewBox="0 0 107 109" xmlns="http://www.w3.org/2000/svg"><g fill-rule="nonzero" fill="none"><path d="M45.095 21.803c6.866 0 13.108 2.816 17.566 7.448 4.548 4.54 7.312 10.898 7.312 17.8 0 6.962-2.48 11.254-5.291 15.32l-.414.594-.208.297-.418.592-.197.285-.393.572c-2.755 4.019-5.48 8.37-5.563 15.49v12.534c0 1.635-.624 2.997-1.605 4.087-1.07 1-2.496 1.726-4.012 1.726h-1.873c0 .636-.267 1.271-.713 1.725a2.414 2.414 0 01-1.694.727h-4.905a2.414 2.414 0 01-1.694-.727v-.09c-.446-.364-.713-1-.713-1.635h-1.873c-1.516 0-2.942-.727-4.012-1.726-.981-1.09-1.605-2.452-1.605-4.087V80.202c-.09-7.63-3.21-12.08-6.153-16.348l-.418-.592c-3.057-4.343-5.913-8.74-5.913-16.21 0-6.903 2.764-13.26 7.312-17.801a24.235 24.235 0 0117.477-7.448zm9.028 68.524H35.877v2.447c0 .725.267 1.268.712 1.722.445.453.979.725 1.69.725H51.72c.712 0 1.246-.272 1.691-.725.445-.454.712-.997.712-1.722v-2.447zm0-8.042H35.877v4.803h18.246v-4.803zm-9.168-57.052c-5.874 0-11.304 2.447-15.22 6.435a22.137 22.137 0 00-6.32 15.498c0 6.216 2.447 10.174 5.073 13.967l.416.598.208.298c3.115 4.44 6.32 9.063 6.765 16.857h4.272v-.036h.803l.002-8.44c-.682.215-1.449.322-2.3.322-1.11 0-2.063-.38-2.86-1.139-.796-.759-1.194-1.733-1.194-2.923 0-1.095.394-2.12 1.183-3.075.789-.955 2.136-1.432 4.042-1.432.406 0 .796.027 1.171.082.375.055.805.137 1.289.247a13.624 13.624 0 00-.469-2.677c-.234-.813-.75-2.331-1.546-4.554h-4.663V52.14h3.843a27.114 27.114 0 01-.562-3.404 18.056 18.056 0 01-.118-1.925c0-3.02.899-5.38 2.695-7.078 1.796-1.698 4.014-2.548 6.654-2.548 3.061 0 5.224.744 6.49 2.23.75.893 1.124 1.95 1.124 3.17 0 1.033-.281 1.874-.843 2.524-.563.65-1.414.974-2.554.974-.86 0-1.546-.297-2.062-.892-.515-.595-.773-1.338-.773-2.23 0-.11.031-.799.094-2.066 0-.658-.11-1.158-.328-1.503-.344-.516-.969-.774-1.875-.774-.765 0-1.386.246-1.862.739-.477.493-.715 1.35-.715 2.57 0 .455.23 1.902.691 4.344.461 2.441.848 4.398 1.16 5.869h5.482v3.122h-5.2c0 .11.023.587.07 1.432.015.266.023.532.023.798 0 .924-.066 1.769-.2 2.536-.132.767-.394 1.964-.784 3.592 1.265.422 2.116.688 2.554.798a8.384 8.384 0 001.991.258c1.718 0 2.937-.329 3.655-.986.453-.407.867-1.213 1.242-2.418H56.6c-.14 2.442-.492 4.343-1.054 5.705-1.062 2.52-2.89 3.78-5.483 3.78-.228 0-.448-.01-.659-.031v8.125h.446l.001.036h4.272c.445-7.794 3.65-12.416 6.765-16.857 2.848-4.078 5.697-8.157 5.697-14.863 0-5.982-2.404-11.51-6.32-15.498-3.916-3.988-9.346-6.435-15.31-6.435zm-.632 42.494c-.09.11-.177.216-.263.318v10.823h-.707v.018h3.126l.002-9.45c-.583-.43-1.302-.999-2.158-1.71zM38.91 64.57c-.78 0-1.403.225-1.87.675-.468.45-.702 1.033-.702 1.75 0 .945.374 1.608 1.122 1.99.405.198.88.297 1.426.297.81 0 1.5-.21 2.068-.627v-1.47h1.206c.171-.354.257-.7.257-1.037 0-.183-.343-.495-1.029-.937-.686-.427-1.512-.64-2.478-.64z" fill="#152D72"/><path d="M72.897 65.557l6.231 6.434a1.607 1.607 0 010 2.266 1.539 1.539 0 01-2.225 0l-6.32-6.344c-.623-.634-.623-1.722 0-2.356.623-.635 1.602-.635 2.314 0zm-53.48 0c.623.634.623 1.722 0 2.356l-6.32 6.344a1.539 1.539 0 01-2.225 0 1.607 1.607 0 010-2.266l6.23-6.434c.713-.635 1.692-.635 2.315 0zm-7.914-23.495c.89 0 1.602.726 1.602 1.632 0 .906-.712 1.631-1.602 1.631h-8.9C1.712 45.325 1 44.6 1 43.694s.712-1.632 1.602-1.632h8.901zm75.895 0c.89 0 1.602.726 1.602 1.632 0 .906-.712 1.631-1.602 1.631h-8.901c-.89 0-1.602-.725-1.602-1.631s.712-1.632 1.602-1.632h8.9zM17.84 13.131l6.32 6.434a1.607 1.607 0 010 2.266 1.539 1.539 0 01-2.226 0l-6.32-6.435a1.607 1.607 0 010-2.265 1.539 1.539 0 012.226 0zm56.823 0a1.607 1.607 0 010 2.265l-6.32 6.435a1.539 1.539 0 01-2.225 0 1.607 1.607 0 010-2.266l6.32-6.434a1.539 1.539 0 012.225 0zM45.044 1c.802 0 1.603.725 1.603 1.631v9.063c0 .907-.801 1.632-1.692 1.632-.8 0-1.602-.725-1.602-1.632l.09-9.063c0-.906.711-1.631 1.602-1.631z" fill="#FF6841"/></g></svg>