<svg width="171" height="48" viewBox="0 0 171 48" xmlns="http://www.w3.org/2000/svg"><defs><linearGradient x1="22.764%" y1="8.061%" x2="77.236%" y2="91.938%" id="a"><stop stop-color="#D6D6D6" offset=".074%"/><stop stop-color="#E0E0E0" offset="3.345%"/><stop stop-color="#ECEBEB" offset="8.879%"/><stop stop-color="#EFEFEF" offset="14.74%"/><stop stop-color="#EFEFEF" offset="64.39%"/><stop stop-color="#EFEFEF" offset="72.57%"/><stop stop-color="#EAEAEA" offset="79.49%"/><stop stop-color="#DADADA" offset="88.22%"/><stop stop-color="#C1C1C1" offset="97.9%"/><stop stop-color="#BABABA" offset="100%"/></linearGradient><linearGradient x1="-1.614%" y1="47.485%" x2="155.624%" y2="60.26%" id="b"><stop stop-color="#641724" offset="10.05%"/><stop stop-color="#711825" offset="21.25%"/><stop stop-color="#931B26" offset="41.95%"/><stop stop-color="#B31E28" offset="58.39%"/><stop stop-color="#D2202F" offset="100%"/></linearGradient><linearGradient x1="-.207%" y1="46.447%" x2="145.192%" y2="58.415%" id="c"><stop stop-color="#321724" offset="7.922%"/><stop stop-color="#381724" stop-opacity=".878" offset="19.19%"/><stop stop-color="#4B1826" stop-opacity=".707" offset="34.92%"/><stop stop-color="#681A28" stop-opacity=".508" offset="53.26%"/><stop stop-color="#921D2B" stop-opacity=".287" offset="73.59%"/><stop stop-color="#C6202E" stop-opacity=".051" offset="95.3%"/><stop stop-color="#D2202F" stop-opacity="0" offset="100%"/></linearGradient><linearGradient x1="28.59%" y1="116.186%" x2="54.337%" y2="40.719%" id="d"><stop stop-color="#95191D" stop-opacity="0" offset="0%"/><stop stop-color="#4A191D" offset="100%"/></linearGradient><linearGradient x1="-.339%" y1="49.91%" x2="113.718%" y2="49.91%" id="e"><stop stop-color="#B59F2C" offset="0%"/><stop stop-color="#F0EEC5" offset="86.81%"/></linearGradient><linearGradient x1="15.235%" y1="59.76%" x2="95.496%" y2="37.011%" id="f"><stop stop-color="#B59F2C" offset="0%"/><stop stop-color="#F0EEC5" offset="86.81%"/></linearGradient><linearGradient x1="11.79%" y1="74.191%" x2="96.192%" y2="20.834%" id="g"><stop stop-color="#25130E" offset="0%"/><stop stop-color="#2A1711" offset="1.693%"/><stop stop-color="#AC8864" offset="46.4%"/><stop stop-color="#E0B585" offset="66%"/><stop stop-color="#E9C08F" offset="80.32%"/><stop stop-color="#FBD6A4" offset="99.9%"/></linearGradient><linearGradient x1="86.966%" y1="33.236%" x2="-11.198%" y2="66.392%" id="h"><stop stop-color="#E0B585" stop-opacity="0" offset=".136%"/><stop stop-color="#B38F68" stop-opacity=".126" offset="10.42%"/><stop stop-color="#89694D" stop-opacity=".267" offset="21.96%"/><stop stop-color="#654B36" stop-opacity=".411" offset="33.7%"/><stop stop-color="#493325" stop-opacity=".555" offset="45.48%"/><stop stop-color="#362218" stop-opacity=".7" offset="57.33%"/><stop stop-color="#2A1710" stop-opacity=".846" offset="69.28%"/><stop stop-color="#26140E" stop-opacity=".996" offset="81.5%"/><stop stop-color="#25130E" offset="100%"/></linearGradient><linearGradient x1="34.134%" y1="45.08%" x2="79.114%" y2="56.606%" id="i"><stop stop-color="#25130E" offset="6.959%"/><stop stop-color="#351C13" stop-opacity=".782" offset="33.21%"/><stop stop-color="#5A321E" stop-opacity=".4" offset="79.37%"/></linearGradient><linearGradient x1="7.179%" y1="57.643%" x2="97.714%" y2="20.75%" id="j"><stop stop-color="#E0B585" stop-opacity=".2" offset="20.93%"/><stop stop-color="#DDB283" stop-opacity=".216" offset="22.55%"/><stop stop-color="#AC8461" stop-opacity=".459" offset="46.58%"/><stop stop-color="#886249" stop-opacity=".672" offset="67.68%"/><stop stop-color="#724E3A" stop-opacity=".845" offset="84.86%"/><stop stop-color="#6A4634" stop-opacity=".958" offset="95.96%"/></linearGradient><linearGradient x1="-6.369%" y1="49.873%" x2="103.811%" y2="49.873%" id="k"><stop stop-color="#5A321E" stop-opacity=".1" offset="0%"/><stop stop-color="#4D2A19" stop-opacity=".336" offset="20.39%"/><stop stop-color="#412315" stop-opacity=".663" offset="48.77%"/><stop stop-color="#3D2114" offset="77.89%"/></linearGradient><linearGradient x1="0%" y1="49.667%" x2="99.154%" y2="49.667%" id="l"><stop stop-color="#5A321E" stop-opacity=".1" offset=".136%"/><stop stop-color="#452618" stop-opacity=".281" offset="30.25%"/><stop stop-color="#2E1810" stop-opacity=".54" offset="73.3%"/><stop stop-color="#25130E" stop-opacity=".7" offset="100%"/></linearGradient><linearGradient x1=".316%" y1="52.357%" x2="100.413%" y2="52.357%" id="m"><stop stop-color="#25130E" stop-opacity=".2" offset="0%"/><stop stop-color="#25130E" offset="100%"/></linearGradient><linearGradient x1="9.037%" y1="75.117%" x2="107.57%" y2="24.705%" id="o"><stop stop-color="#5A321E" stop-opacity=".3" offset="13.97%"/><stop stop-color="#532E1C" stop-opacity=".366" offset="23.42%"/><stop stop-color="#311A12" stop-opacity=".711" offset="72.96%"/><stop stop-color="#25130E" stop-opacity=".9" offset="100%"/></linearGradient><radialGradient cx="65.596%" cy="-10.039%" fx="65.596%" fy="-10.039%" r="96.52%" gradientTransform="scale(-.60712 -1) rotate(-27.882 .192 3.497)" id="n"><stop stop-color="#47210E" offset="0%"/><stop stop-color="#4A2410" stop-opacity=".763" offset="53.08%"/><stop stop-color="#532C17" stop-opacity=".602" offset="62.98%"/><stop stop-color="#623B23" stop-opacity=".464" offset="71.49%"/><stop stop-color="#785034" stop-opacity=".338" offset="79.22%"/><stop stop-color="#936B49" stop-opacity=".221" offset="86.42%"/><stop stop-color="#B68C64" stop-opacity=".111" offset="93.21%"/><stop stop-color="#DDB383" stop-opacity=".007" offset="99.59%"/><stop stop-color="#E0B585" stop-opacity="0" offset="100%"/></radialGradient></defs><g fill-rule="nonzero" fill="none"><g fill="#1D4888"><path d="M105.934 41.657h-3.52c0-2.733.11-5.466.11-6.997 0-3.17-.55-3.935-1.76-3.935-.66 0-1.65.546-2.53 1.202.11.438.11 1.093.11 1.968v7.762h-3.41V34.66c0-3.17-.55-3.935-1.76-3.935-.66 0-1.54.437-2.42 1.093v9.839h-3.52V28.21h2.86l.22 1.42c1.1-.983 2.42-1.748 3.96-1.748 1.65 0 2.75.874 3.3 1.967 1.32-1.202 2.75-1.967 4.29-1.967 2.64 0 4.07 1.749 4.07 6.012.11 1.75 0 4.81 0 7.762zm10.271.16l-.223-1.437c-1.225.996-2.451 1.66-4.234 1.66-2.786 0-4.235-1.328-4.235-3.872 0-2.875 2.229-4.645 7.02-4.645h.892v-.995c0-1.438-.78-2.102-2.563-2.102-1.449 0-2.897.332-4.123.775l-.446-2.102c1.56-.663 3.455-1.216 5.572-1.216 3.455 0 5.126 1.659 5.126 4.202v9.622h-2.786v.11zm-1.04-6.282h-.947c-2.525 0-3.261.85-3.261 2.02 0 1.062.63 1.806 1.683 1.806.842 0 1.683-.425 2.525-1.17v-2.656zm13.72-4.264c-.438-.109-.766-.218-1.203-.218-.765 0-1.421.546-2.624 2.077v8.527h-3.388V28.21h2.842l.218 2.077c1.422-1.75 2.296-2.405 3.28-2.405.437 0 .874.109 1.312.328l-.438 3.06zm8.615 10.386l-3.515-6.692v6.692h-3.515V25.97h3.515v7.46l3.076-5.266h4.065l-4.065 5.704 4.504 7.789H137.5zm7.663-6.033v.222c0 2.543 1.09 3.539 2.943 3.539 1.2 0 2.726-.221 4.361-.774l.436 1.99c-1.635.885-3.597 1.438-5.56 1.438-3.488 0-5.778-1.77-5.778-6.746 0-4.867 2.29-7.41 6.105-7.41 3.38 0 5.67 1.99 5.342 7.741h-7.85zm4.82-2.117c0-2.296-.766-3.329-2.187-3.329-1.42 0-2.295 1.492-2.405 3.444l4.592-.115zm8.898 8.532c-2.482 0-3.346-.997-3.346-3.546v-7.869h-1.726v-2.438h1.834c.324-.776.54-1.44.864-2.216h2.482v2.216h2.913v2.438h-2.913v6.982c0 1.44.323 1.773 1.187 1.773.431 0 .97 0 1.834-.332l.216 1.995c-1.295.665-2.266.997-3.345.997zm-100.978-.382c-2.171 0-3.04-.98-3.04-3.486v-8.28H52.8v-1.525h2.172c.217-1.198.434-1.09.542-2.396h1.52v2.396h3.475v1.525h-3.474v7.735c0 1.852.325 2.396 1.52 2.396.434 0 1.085-.108 2.063-.435l.217 1.307c-.977.436-2.063.763-2.932.763zm14.744 0H70.58v-7.021c0-3.51-.87-4.717-2.502-4.717-.87 0-2.067.548-3.263 1.536v10.202h-2.067V25.97h2.067v3.949c1.088-.878 2.393-1.646 3.916-1.646 2.393 0 3.916 1.536 3.916 5.814.11 1.536 0 4.827 0 7.57zm4.294-6.502v.22c0 3.306 1.333 4.629 3.666 4.629 1.333 0 2.666-.33 3.888-.772l.444 1.212a10.349 10.349 0 01-4.887 1.213c-3.222 0-5.443-1.764-5.443-6.502 0-4.628 2-7.272 5.443-7.272 3.11 0 5.11 1.983 4.776 7.162h-7.887v.11zm5.702-1.261c0-2.548-.85-4.098-2.763-4.098-1.913 0-2.87 1.882-2.976 4.208l5.74-.11zm82.152-5.211v3.026h-.437v-3.026h-.984v-.418h2.296v.418h-.875zm4.562 3.026c0-1.044-.105-2.192-.21-2.922l-.938 2.922h-.313l-.94-2.922c-.104.73-.104 1.878-.104 2.922h-.417c0-1.148.104-2.296.208-3.444h.522l.94 2.713.938-2.713h.522c.105 1.148.209 2.4.313 3.444h-.521zM102.85 23.674c-.446 0-.891 0-1.449-.11v2.406h-3.453V10.228h2.785l.223 1.312c1.114-.984 2.34-1.64 3.676-1.64 3.231 0 4.79 2.842 4.79 6.34.112 5.138-2.673 7.434-6.572 7.434zm.893-11.096c-.672 0-1.568.334-2.352 1.114v7.463c.448.223 1.008.223 1.568.223 1.792 0 3.024-1.448 3.024-4.567-.112-2.673-.896-4.233-2.24-4.233zM58.216 24.057c-3.537 0-5.416-2.323-5.416-6.858 0-4.313 2.21-7.299 5.748-7.299 1.658 0 2.873.553 3.868 1.659l-1.216 1.77c-.552-.553-1.437-.885-2.21-.885-1.548 0-2.653 1.438-2.653 4.313 0 3.318.884 4.645 2.432 4.645 1.105 0 1.99-.332 2.874-1.106l1.105 1.77c-.995 1.106-2.542 1.99-4.532 1.99zm10.765 0c-3.684 0-5.85-1.756-5.85-6.804 0-4.939 2.491-7.353 6.392-7.353 3.684 0 5.85 1.756 5.85 6.694 0 5.158-2.383 7.463-6.392 7.463zm.217-11.479c-1.53 0-2.624 1.12-2.624 4.256 0 3.919.984 4.927 2.733 4.927 1.53 0 2.623-1.12 2.623-4.255 0-3.92-.983-4.928-2.732-4.928zm26.727 11.096h-3.42c0-2.733.111-5.466.111-6.996 0-3.17-.551-3.936-1.764-3.936-.662 0-1.655.547-2.537 1.203.11.437.11 1.093.11 1.967v7.762h-3.418v-6.996c0-3.17-.552-3.936-1.765-3.936-.662 0-1.544.438-2.426 1.093v9.839h-3.529V10.228h2.867l.22 1.421c1.104-.984 2.427-1.749 3.971-1.749 1.654 0 2.757.875 3.308 1.968C88.977 10.665 90.41 9.9 91.954 9.9c2.647 0 4.08 1.75 4.08 6.012 0 1.75-.11 4.81-.11 7.762zm22.959.161l-.223-1.437c-1.226.995-2.452 1.659-4.235 1.659-2.786 0-4.235-1.328-4.235-3.871 0-2.876 2.23-4.646 7.021-4.646h.892v-.995c0-1.438-.78-2.101-2.564-2.101-1.448 0-2.897.332-4.123.774l-.446-2.101c1.56-.664 3.455-1.217 5.572-1.217 3.455 0 5.127 1.659 5.127 4.203v9.622h-2.786v.11zm-.658-6.283h-.947c-2.525 0-3.262.85-3.262 2.02 0 1.062.632 1.806 1.684 1.806.842 0 1.683-.425 2.525-1.169v-2.657zm13.063-4.263c-.328-.11-.765-.219-1.202-.219-.765 0-1.421.547-2.624 2.077v8.527h-3.498V10.228h2.842l.22 2.077c1.42-1.75 2.295-2.405 3.279-2.405.437 0 .874.11 1.311.328l-.328 3.06zm3.926 4.353v.221c0 2.544 1.09 3.54 2.944 3.54 1.199 0 2.834-.222 4.36-.775l.437 1.99c-1.636.886-3.598 1.439-5.56 1.439-3.49 0-5.779-1.77-5.779-6.747 0-4.866 2.29-7.41 6.106-7.41 3.38 0 5.669 1.99 5.342 7.742h-7.85zm4.437-2.118c0-2.295-.765-3.328-2.186-3.328-1.421 0-2.296 1.492-2.405 3.443l4.591-.115z"/></g><g transform="translate(.55 .55)"><circle fill="url(#a)" cx="23.1" cy="23.1" r="23.1"/><path d="M13.09 34.76c-.11 2.75-.66 5.5-1.76 8.25 3.41 1.98 7.48 3.19 11.66 3.19 3.19 0 6.38-.66 9.13-1.87-4.4-4.84-11.11-8.69-19.03-9.57z" fill="url(#b)"/><path d="M13.09 34.76c0 1.43-.22 2.86-.55 4.29 6.05.44 11.44 2.86 15.62 6.6 1.43-.33 2.75-.77 3.96-1.32-4.4-4.84-11.11-8.69-19.03-9.57z" fill="url(#c)" opacity=".55"/><path d="M13.09 43.89c2.97 1.43 6.16 2.2 9.68 2.31-2.2-4.07-5.94-5.83-9.68-2.31z" fill="url(#d)"/><path d="M28.27 32.45c-2.2-.44-4.4.11-5.83.88 3.08 1.43 2.09 2.97 3.08 5.72 2.53 1.54 4.84 3.3 6.71 5.28 1.32-.55 2.64-1.32 3.85-2.09-2.09-6.82-5.06-9.24-7.81-9.79z" fill="url(#e)"/><path d="M22.44 33.33c-4.29-1.87-9.57-1.98-9.57-1.98.22 1.32.22 2.09.22 3.41 4.18.55 7.92 1.76 11.33 3.63.33.22.77.44 1.1.66-.99-2.75 0-4.4-3.08-5.72z" fill="url(#f)"/><path d="M34.54 10.56s-1.87.22-2.75.22c-1.43 0-2.64.11-2.97 0-2.09-.33-3.85-2.42-4.4-3.52 0-.11-.11-.11-.22-.11-.22.11-.55.22-1.1.44-.33.11-.77.33-1.43.44-2.2.55-4.4.66-7.48 2.2-2.97 1.54-5.28 3.74-6.27 6.38-1.98 5.17.33 8.8 3.08 11.22.99.88 1.65 2.09 1.98 3.3 0 0 5.28.11 9.46 1.98 1.54-.77 3.63-1.32 5.83-.88-1.1-2.2-.11-3.63.22-4.18.44-.66.55-.77 1.1-1.32-.11 0-.44-.11-.55-.33 0 0 1.32-1.21 2.2-2.53.77-1.65 1.32-2.97 1.32-2.97 2.2-1.98 3.52-3.63 3.96-4.95 2.2-.66 2.64-6.05-1.98-5.39z" fill="url(#g)"/><path d="M31.24 23.87c-.77 1.32-2.09 2.53-2.2 2.64.11.22.33.22.55.33-.55.55-.66.66-1.1 1.32-.44.55-1.43 2.09-.33 4.29h-1.1c-.77 0-1.43 0-2.09.11-.11 0-.22 0-.33.11-.33.11-.77.22-1.1.33-.22.11-.33.11-.55.22-.11 0-.22.11-.22.11-.11 0-.11.11-.22.11s-.11.11-.22.11-.22-.11-.33-.11c-.11 0-.22-.11-.33-.11h-.11c-.11 0-.22-.11-.22-.11h-.11c-.11 0-.22-.11-.33-.11-.11 0-.22-.11-.33-.11h-.11c-.11-.44-.33-.55-.55-.55h-.11c-.11 0-.22-.11-.33-.11-.11 0-.22 0-.33-.11-.11 0-.22-.11-.33-.11h-.11c-.11 0-.22 0-.33-.11-.11 0-.22 0-.33-.11-.33-.11-.66-.11-.99-.22h-3.63v-.22c0-.11 0-.22-.11-.22 0-.11-.11-.33-.22-.44l-.33-.66v-.22c0-.11 0-.11-.11-.11-.11-.11-.11-.22-.22-.33 0-.11-.11-.11-.11-.22-.11-.11-.22-.33-.33-.44l-.22-.22-.33-.33-.33-.33-.33-.33-.33-.33-.33-.33c-.11-.11-.11-.22-.22-.22-1.1-1.32-1.98-2.97-2.2-4.95-.11-1.21 0-2.53.44-4.07 0-.11.11-.22.11-.22-.77 7.59 4.07 9.02 8.91 8.47-.33.33-.66.55-.99.88v.11c1.32.22 2.64-.33 3.85-.88-.22.33-.55.66-.88.99v.11c1.76 0 3.3-1.1 4.62-2.2-.11.22-.11.44-.22.66 0 0 0 .11.11.11 1.21-.44 2.31-1.21 3.08-2.2.77-1.1 2.31-1.32 3.41-.44l1.1.77z" fill="url(#h)"/><path d="M13.75 19.36c-.44-.55-.66-1.32-.66-1.98l-.66.33h-.11c0-.66.44-1.21.66-1.87-.33 0-.55.11-.88.22 0 0-.11 0-.11-.11.77-1.1 1.98-1.76 3.19-2.2v-.11c.11-.22.11-.33.11-.44-.33-1.32-3.19-.22-4.51 1.32-1.21 1.54-1.54 3.52-1.21 5.17.44 1.76 1.54 3.08 3.19 3.19.33 0 .77 0 1.1-.11.22-.11.55-.11.77-.33.77-.44 1.21-1.32.99-2.2-.66-.11-1.43-.22-1.87-.88z" fill="url(#i)"/><path d="M38.17 13.2v-.55a.84.84 0 00-.22-.55c0-.11-.11-.22-.22-.33 0-.11-.11-.11-.11-.22l-.11-.11c-.11-.11-.22-.22-.33-.22-.11 0-.11-.11-.22-.11-.55-.33-1.32-.44-2.31-.33 0 0-1.87.22-2.75.22-1.21 0-2.2.11-2.64.11h-.33c2.75.88-1.76 7.81 5.17 8.58.88-.88 1.54-1.76 1.98-2.42 0-.11.11-.11.11-.22s.11-.11.11-.22.11-.11.11-.22 0-.11.11-.22c0-.11 0-.11.11-.22h.22c.11 0 .11-.11.22-.11 0 0 .11 0 .11-.11h.11c.11 0 .11-.11.22-.22.33-.33.55-.77.66-1.21-.11-.55 0-.99 0-1.32z" fill="url(#j)" opacity=".71"/><path d="M19.36 11.22h.55s.11 0 .11.11c-.44.99-.88 1.98-.77 3.08.11.44.22.88.44 1.32 0 .11.11.11.22.11.88-3.63 7.7-1.43 9.02-4.95-2.09-.33-3.85-2.42-4.4-3.52-.11-.22-.22-.22-.33-.22-.22.11-.55.22-1.1.44-.11 0-.22.11-.44.11a9.208 9.208 0 00-3.3 3.52z" fill="url(#k)" opacity=".83"/><path d="M24.75 10.56c-1.32.11-1.87 2.64-2.64 3.19 1.43-.44 3.19-.55 4.62-.99.11-1.65-.88-2.31-1.98-2.2z" fill="url(#l)"/><path d="M25.08 11.77c-.66 0-.99 1.21-1.43 1.54.77-.11 1.65-.22 2.42-.44.11-.77-.44-1.1-.99-1.1z" fill="url(#m)"/><path d="M31.46 23.1s0-.11.11-.11c.11-.22.11-.33.22-.44.44-.88.66-1.54.66-1.54 2.2-1.98 3.52-3.63 3.96-4.95-4.62 2.97-9.02-.11-11.55 1.76l-.33.33c-.99.99-.66 2.64.55 3.19l5.39 2.2c.44.22.88 0 .99-.44z" fill="url(#n)" opacity=".8"/><path d="M34.65 10.56c-.11.22-.11.33-.22.44.11.11.22.22.44.22.22.11.22.11.33.33.11.11.11.22.11.44 0 .11 0 .11.11.11 1.1.33 2.64.55 2.53 1.76.44-1.54-.44-3.63-3.3-3.3z" fill="url(#o)"/></g></g></svg>