<svg version="1.1" id="Layer_1" xmlns="http://www.w3.org/2000/svg" x="0" y="0" viewBox="0 0 240 41" style="enable-background:new 0 0 240 41" xml:space="preserve"><style>.st2{fill:#000a8c}</style><g id="Logo_1_"><g id="Dot_Com"><g id="Com_Bubble"><linearGradient id="Bubble_1_" gradientUnits="userSpaceOnUse" x1="197.141" y1="31.244" x2="226.757" y2="1.628"><stop offset=".15" style="stop-color:#000a8c"/><stop offset=".281" style="stop-color:#031c99"/><stop offset=".546" style="stop-color:#0a4cbb"/><stop offset=".917" style="stop-color:#1699f2"/><stop offset="1" style="stop-color:#19abff"/></linearGradient><path id="Bubble" d="M223.7 29.2c3-1 5.8-3.9 6.6-6.8.9-3.3.9-11.9.3-15-.6-3.1-3.1-5.7-6.5-6.4-4.6-1-20.4 2.9-24.9 4.5-3.4 1.3-8.2 3.7-8.7 10.8-.2 2-.1 5.3.4 7.2.7 2.9 3.2 5.5 8.6 6.2 6.2.9 18.6 1.3 24.2-.5z" style="fill:url(#Bubble_1_)"/><path id="Com" d="M208.8 17.8v-1.2c0-1.4-.6-2.2-1.6-2.2s-1.6.7-1.6 2.2v1.2c0 1.4.6 2.2 1.6 2.2 1.1 0 1.6-.7 1.6-2.2zm18.2 4.1c0 .2-.2.4-.4.4h-2.2c-.2 0-.4-.2-.4-.4v-6.1c0-1.1-.3-1.5-1.1-1.5-.3 0-.8.1-1.4.3 0 .4.1.8.1 1.2v6.1c0 .2-.2.4-.4.4H219c-.2 0-.4-.2-.4-.4v-6.1c0-1.1-.2-1.5-1-1.5-.3 0-.8.2-1.4.5v7.1c0 .2-.2.4-.4.4H214c-.2 0-.4-.2-.4-.4v-9.5c0-.2.2-.4.4-.4h2c.2 0 .4.2.4.4v.4c.7-.5 1.6-.9 2.6-.9.9 0 1.6.3 2.1.9 1-.6 1.7-.9 2.9-.9 2.4 0 3.1 1.6 3.1 3.9v6.1zm-15.3-4.1c0 2.8-1.6 4.6-4.5 4.6s-4.5-1.8-4.5-4.6v-1.2c0-2.8 1.6-4.6 4.5-4.6s4.5 1.8 4.5 4.6v1.2zM201 14.5c-.6-.1-1.2-.1-2.2-.1-.8 0-1.5.5-1.5 2.1V18c0 1.6.7 2.1 1.5 2.1 1 0 2-.1 2.2-.1.2 0 .4.1.4.3 0 .2.2 1.4.2 1.6 0 .2-.1.3-.4.4-.5.1-1.5.3-2.6.3-2.5 0-4.2-1.6-4.2-4.5v-1.5c0-2.9 1.6-4.5 4.2-4.5 1.1 0 2.1.1 2.6.3.3.1.4.2.4.4s-.2 1.4-.2 1.6c-.1 0-.2.1-.4.1z" style="fill:#fff"/></g><path id="Dot" class="st2" d="M193.4 35.2c0-1.4-.3-2.4-.7-3-.8-1-2.1-1.4-3.9-1.4h-1.2c-1.8 0-3.1.4-3.9 1.4-.5.6-.7 1.6-.7 3 0 1.5.3 2.5.7 3.2.8 1 2.1 1.4 3.9 1.4h1.2c1.8 0 3.1-.4 3.9-1.4.5-.7.7-1.7.7-3.2z"/></g><path id="Confused" class="st2" d="M142.4 25.1c.1-2.6 1.6-4.3 3.9-4.3s3.7 1.6 3.8 4.3h-7.7zm3.9-9.9c-6.4 0-10.4 4.1-10.4 10.9v3c0 8 5.6 10.8 10.4 10.8 2.8 0 6.5-.9 8.4-1.5.8-.2 1-1 .9-1.6-.1-.4-.5-2-.7-2.5-.1-.5-.5-1-1.3-.9-.8 0-3.6.9-6.9.8-3.7 0-4.4-2.6-4.4-4.4h12.9c.7 0 1.3-.6 1.3-1.3V26c.1-6.6-3.8-10.8-10.2-10.8zM44.7 29.3c0 3.2-1.4 5.1-3.9 5.1s-3.9-1.9-3.9-5.1V26c0-3.2 1.4-5.1 3.9-5.1s3.9 1.8 3.9 5.1v3.3zm-3.9-14.1c-6.3 0-10.3 4.1-10.3 10.7v3.3c0 6.6 4 10.7 10.3 10.7 6.4 0 10.3-4.1 10.3-10.7v-3.3c0-6.6-4-10.7-10.3-10.7zm132 19.2c-.8.1-2.2.2-3.5.2-2.8 0-3.9-1.6-3.9-5.4V26c0-3.8 1.1-5.4 3.9-5.4.8 0 2.3.1 3.5.2v13.6zm4.9-28.2c-.7.1-3.1.5-3.8.7-.7.1-1.1.7-1.1 1.3v7.3c-1.2-.1-2.4-.2-3.5-.2-6.7 0-10.3 3.8-10.3 10.8v3.2c0 7 3.7 10.8 10.3 10.8 2.6 0 5.8-.4 8.4-1.1 1-.3 1.5-.6 1.5-1.6V7.5c0-.8-.6-1.5-1.5-1.3zM72.5 39.7c.7 0 1.3-.5 1.3-1.3V24.9c0-4.8-.9-9.7-7.6-9.7-2.5 0-4.3.5-6.2 1.6 0-.7-.6-1.3-1.3-1.3h-3.6c-.7 0-1.3.6-1.3 1.3v21.5c0 .8.6 1.3 1.3 1.3h3.8c.7 0 1.3-.6 1.3-1.3V22.1c1.8-.9 3-1.3 4.2-1.3 2.8 0 3 .7 3 4.1v13.4c0 .7.5 1.3 1.3 1.3h3.8zm12.6 0c.7 0 1.3-.5 1.3-1.3V20.5h3.4c.7 0 1.3-.6 1.3-1.3v-2.5c0-.7-.6-1.3-1.3-1.3h-3.4v-1.6c0-1.6.2-2 1.9-2 .4 0 1.6.1 1.6.1.7 0 1.2-.5 1.3-1 .1-.5.4-1.4.6-2.1.2-.7-.2-1.5-1-1.6-.8-.2-2.2-.4-3.2-.4-3.8.1-7.6.9-7.6 7.2v1.5h-3.2c-.7 0-1.3.6-1.3 1.3v1.9c0 .5.4 1.1 1.2 1.2.8.1 3.3.6 3.3.6v17.8c0 .7.6 1.3 1.3 1.3h3.8zm21.8-1.4c0 .8.6 1.4 1.3 1.4h3.8c.7 0 1.3-.6 1.3-1.3V16.8c0-.7-.6-1.3-1.3-1.3h-3.8c-.8 0-1.3.7-1.3 1.3V33c-1 .5-2.8 1.5-4.2 1.5-2.6 0-3-1-3-4.2V16.8c0-.7-.6-1.3-1.3-1.3h-3.8c-.7 0-1.3.6-1.3 1.3v13.4c0 5.9 1.6 9.7 7.6 9.7 2.5.1 4.2-.5 6-1.6zM21.1 40c2.8 0 5.8-.6 6.8-.7 1-.2 1.4-1 1.2-1.7-.2-.7-.6-2.2-.7-2.5-.2-.6-.5-1.3-1.5-1.2-1.1 0-3.8.3-5.7.3-3.7 0-5.5-2.4-5.5-7.2v-6.1c0-4.9 1.7-7.2 5.5-7.2 2 0 4.2.2 5.7.3.7.1 1.3-.4 1.4-.8.3-.9.6-2.1.8-3 .2-.6-.3-1.4-.9-1.5-1.5-.4-4-.9-7.1-.9C17.5 7.8 9 9.1 9 20.9V27c0 12.1 9.3 13 12.1 13zm104.2.2c6.3 0 8.6-3.8 8.6-7.1s-1.7-5.4-4.6-6.9c-2.9-1.5-4-2.1-5-2.7-1-.5-1.4-.8-1.4-1.6 0-.7.8-1.3 2.4-1.3 1.8 0 4.7.4 5.9.6.9.2 1.4-.5 1.6-1 .2-.7.4-1.3.6-2.1.2-1-.3-1.5-.9-1.7-1.7-.5-4.3-1.2-7.7-1.2-5.4 0-8.3 2.5-8.3 7.1 0 2.3 1.2 4.2 3.7 5.7s4.5 2.8 5.7 3.5c1.3.8 1.5 1.5 1.5 1.9 0 .8-.5 1.5-2.5 1.5s-5-.5-6.4-.8c-.8-.2-1.4.5-1.5.8-.2.5-.6 2.2-.8 2.7-.2 1 .5 1.5.8 1.6 2.9.8 6.4 1 8.3 1z"/></g></svg>