<svg width="233" height="148" viewBox="0 0 233 148" xmlns="http://www.w3.org/2000/svg" xmlns:xlink="http://www.w3.org/1999/xlink"><defs><filter x="-11.2%" y="-11.1%" width="122.5%" height="122.1%" filterUnits="objectBoundingBox" id="c"><feOffset in="SourceAlpha" result="shadowOffsetOuter1"/><feGaussianBlur stdDeviation="7" in="shadowOffsetOuter1" result="shadowBlurOuter1"/><feColorMatrix values="0 0 0 0 0 0 0 0 0 0 0 0 0 0 0 0 0 0 0.2 0" in="shadowBlurOuter1"/></filter><rect id="d" x="0" y=".679" width="187" height="190" rx="14.331"/><path id="a" d="M0 0h233v148H0z"/></defs><g fill="none" fill-rule="evenodd"><mask id="b" fill="#fff"><use xlink:href="#a"/></mask><g mask="url(#b)"><g transform="translate(25 12)"><use fill="#000" filter="url(#c)" xlink:href="#d"/><use fill="#FFF" xlink:href="#d"/></g><path d="M110.393 106.5s.452 5.115-3.688 7.755c0 0 8.107-15.246-9.22-24.255 0 0 2.435 3.927-3.271 8.646-4.767 3.927-16.11 16.896.557 24.354 0 0-6.75-8.382 1.635-13.002 0 0-3.201 4.884 2.54 9.009 3.41-3.366 2.505-5.082 2.505-5.082s4.94 3.762 1.287 9.075c0 0 13.883-3.168 7.655-16.5zM146.6 101.941h-9.659l.878-10.484a1.36 1.36 0 00-.901-1.372 1.402 1.402 0 00-1.594.464l-13.08 18.11a1.34 1.34 0 00-.082 1.41c.243.449.72.727 1.238.722h9.89l-1.017 10.711a1.361 1.361 0 00.925 1.407l.462.091c.47-.006.905-.245 1.155-.635l12.94-18.29a1.34 1.34 0 00.083-1.412c-.162-.299-.575-.54-1.238-.722z" fill="#FF6841"/><path d="M87.594 56.144a4.109 4.109 0 003.372-1.716l-1.272-.924c-.468.66-1.164 1.068-2.052 1.068-1.5 0-2.58-1.236-2.58-2.712 0-1.476 1.092-2.7 2.592-2.7.876 0 1.572.408 2.04 1.068l1.272-.924a4.109 4.109 0 00-3.372-1.716c-2.34 0-4.2 1.944-4.2 4.272 0 2.352 1.86 4.284 4.2 4.284zm7.08 0c1.596 0 3.012-1.176 3.012-2.94 0-1.776-1.416-2.952-3.012-2.952s-3.012 1.176-3.012 2.952c0 1.764 1.416 2.94 3.012 2.94zm0-1.464c-.78 0-1.416-.612-1.416-1.476 0-.876.636-1.488 1.416-1.488.78 0 1.416.612 1.416 1.488 0 .864-.636 1.476-1.416 1.476zm5.82 1.32v-2.952c0-1.008.576-1.32 1.14-1.32.528 0 .984.384.984 1.272v3h1.572v-2.964c.036-.852.48-1.32 1.104-1.308.552 0 1.008.372 1.008 1.248V56h1.584v-3.072c0-1.68-.732-2.676-2.136-2.676-.576 0-1.44.276-1.872 1.092-.324-.684-.972-1.092-1.8-1.092-.624 0-1.416.384-1.584 1.152v-1.008h-1.572V56h1.572zm10.464 2.748v-3.444c.396.576 1.164.84 1.8.84 1.44 0 2.748-1.14 2.748-2.952 0-1.788-1.308-2.94-2.748-2.94-.636 0-1.404.264-1.8.828v-.684h-1.572v8.352h1.572zm1.5-4.068a1.485 1.485 0 01-1.452-1.476c0-.852.684-1.488 1.452-1.488.792 0 1.44.66 1.44 1.488s-.648 1.476-1.44 1.476zm6.66 1.464c.744 0 1.476-.372 1.848-.948V56h1.572v-5.604h-1.572v.744c-.372-.576-1.092-.888-1.824-.888-1.428 0-2.724 1.236-2.724 2.952 0 1.812 1.32 2.94 2.7 2.94zm.348-1.464c-.84 0-1.452-.696-1.452-1.476 0-.816.612-1.488 1.44-1.488.78 0 1.464.636 1.464 1.488 0 .804-.66 1.476-1.452 1.476zm6.228 1.32v-1.92c0-1.596.552-2.352 1.356-2.352.192 0 .468.024.804.204l.36-1.5c-.252-.132-.588-.18-.888-.18-.696 0-1.332.408-1.644 1.344v-1.2h-1.56V56h1.572zm5.868.144c.984 0 1.968-.42 2.496-1.128l-.924-.924c-.336.396-.9.66-1.464.66-.756 0-1.284-.384-1.452-1.044h4.224c.012-.252.024-.444.024-.6 0-1.716-1.308-2.856-2.904-2.856-1.608 0-2.976 1.14-2.976 2.952 0 1.728 1.26 2.94 2.976 2.94zm1.332-3.456h-2.676c.168-.756.732-1.08 1.368-1.08.708 0 1.26.42 1.308 1.08zM140.106 56v-2.952c0-1.008.576-1.32 1.14-1.32.528 0 .984.384.984 1.272v3h1.572v-2.964c.036-.852.48-1.32 1.104-1.308.552 0 1.008.372 1.008 1.248V56h1.584v-3.072c0-1.68-.732-2.676-2.136-2.676-.576 0-1.44.276-1.872 1.092-.324-.684-.972-1.092-1.8-1.092-.624 0-1.416.384-1.584 1.152v-1.008h-1.572V56h1.572zm10.62 2.748l3.456-8.352h-1.692l-1.284 3.24-1.32-3.24h-1.728l2.208 5.076-1.32 3.276h1.68zM77.742 75.144c2.376 0 4.02-1.404 4.02-4.464h-4.164v1.356h2.34c-.012.072-.024.144-.048.204-.216.864-1.068 1.404-2.148 1.404-1.44 0-2.556-1.296-2.556-2.772 0-1.476 1.116-2.736 2.556-2.736.72 0 1.38.312 1.848.816l1.212-1.044c-.72-.804-1.812-1.32-3.06-1.32-2.376 0-4.224 1.932-4.224 4.284 0 2.34 1.848 4.272 4.224 4.272zm7.488 0c.744 0 1.476-.372 1.848-.948V75h1.572v-5.604h-1.572v.744c-.372-.576-1.092-.888-1.824-.888-1.428 0-2.724 1.236-2.724 2.952 0 1.812 1.32 2.94 2.7 2.94zm.348-1.464c-.84 0-1.452-.696-1.452-1.476 0-.816.612-1.488 1.44-1.488.78 0 1.464.636 1.464 1.488 0 .804-.66 1.476-1.452 1.476zm6.636 1.464c1.152 0 2.352-.612 2.352-1.788 0-.456-.168-1.296-1.512-1.656l-.924-.24c-.312-.084-.552-.216-.552-.48 0-.288.288-.492.648-.492.372 0 .684.204.684.588h1.5c.012-1.332-1.188-1.824-2.208-1.824-1.296 0-2.196.816-2.196 1.68 0 .588.192 1.392 1.632 1.776l.744.18c.42.108.612.228.612.468 0 .324-.348.552-.804.552-.552 0-.828-.348-.828-.672h-1.476c.012 1.236 1.152 1.908 2.328 1.908zm8.796 0c.96 0 1.812-.372 2.232-1.044.324.6.984.936 1.896.948h.336v-1.392h-.276c-.54 0-.936-.444-.936-1.272v-1.128h1.008v-1.2h-1.008v-.912h-1.464v.864h-1.14c-.792 0-1.224-.456-1.224-1.044 0-.552.432-.912.972-.912.396 0 .78.204.996.504l1.068-1.008c-.468-.588-1.272-.96-2.088-.96-1.5 0-2.544 1.008-2.544 2.256 0 .828.408 1.512 1.032 1.752a2.286 2.286 0 00-1.476 2.16c0 1.392 1.008 2.388 2.616 2.388zm.204-1.464c-.732 0-1.212-.432-1.212-1.116 0-.78.672-1.308 1.692-1.308h1.104v.888c-.012.924-.636 1.536-1.584 1.536zm13.8 1.32v-1.476h-3.624v-1.848h3.084v-1.5h-3.084v-1.968h3.516v-1.476h-5.184V75h5.292zm2.952 0v-8.652h-1.572V75h1.572zm4.224.144c.984 0 1.968-.42 2.496-1.128l-.924-.924c-.336.396-.9.66-1.464.66-.756 0-1.284-.384-1.452-1.044h4.224c.012-.252.024-.444.024-.6 0-1.716-1.308-2.856-2.904-2.856-1.608 0-2.976 1.14-2.976 2.952 0 1.728 1.26 2.94 2.976 2.94zm1.332-3.456h-2.676c.168-.756.732-1.08 1.368-1.08.708 0 1.26.42 1.308 1.08zm5.508 3.456c1.02 0 1.836-.468 2.364-1.2l-1.176-.828c-.252.348-.72.564-1.176.564-.888 0-1.488-.672-1.488-1.5 0-.816.6-1.464 1.488-1.464.456 0 .924.216 1.176.564l1.176-.828a2.838 2.838 0 00-2.364-1.2c-1.632 0-3.072 1.152-3.072 2.928s1.44 2.964 3.072 2.964zm5.604-.144v-4.38h1.188v-1.224h-1.188v-2.04h-1.572v2.04h-1.02v1.224h1.02V75h1.572zm3.78 0v-1.92c0-1.596.552-2.352 1.356-2.352.192 0 .468.024.804.204l.36-1.5c-.252-.132-.588-.18-.888-.18-.696 0-1.332.408-1.644 1.344v-1.2h-1.56V75h1.572zm4.152-6.588c.552 0 .996-.42.996-.948s-.444-.936-.996-.936c-.54 0-.996.408-.996.936s.456.948.996.948zm.792 6.588v-5.604h-1.572V75h1.572zm4.308.144c1.02 0 1.836-.468 2.364-1.2l-1.176-.828c-.252.348-.72.564-1.176.564-.888 0-1.488-.672-1.488-1.5 0-.816.6-1.464 1.488-1.464.456 0 .924.216 1.176.564l1.176-.828a2.838 2.838 0 00-2.364-1.2c-1.632 0-3.072 1.152-3.072 2.928s1.44 2.964 3.072 2.964zm4.272-6.732c.552 0 .996-.42.996-.948s-.444-.936-.996-.936c-.54 0-.996.408-.996.936s.456.948.996.948zM152.73 75v-5.604h-1.572V75h1.572zm3.696 0v-4.38h1.188v-1.224h-1.188v-2.04h-1.572v2.04h-1.02v1.224h1.02V75h1.572zm4.056 2.748l3.456-8.352h-1.692l-1.284 3.24-1.32-3.24h-1.728l2.208 5.076-1.32 3.276h1.68z" fill="#3E7485" fill-rule="nonzero"/></g></g></svg>